<svg width="512" height="512" viewBox="0 0 512 512" fill="none" xmlns="http://www.w3.org/2000/svg">
<rect width="512" height="512" rx="80" fill="white"/>
<path d="M200.096 161C202.719 161 204.846 163.127 204.846 165.75V200.096C204.846 202.72 202.719 204.846 200.096 204.846H161C132.749 204.846 109.846 227.749 109.846 256C109.846 284.251 132.749 307.154 161 307.154H200.096C202.719 307.154 204.846 309.28 204.846 311.904V346.25C204.846 348.873 202.719 351 200.096 351H161C108.533 351 66 308.467 66 256C66 203.533 108.533 161 161 161H200.096Z" fill="black"/>
<path d="M351 204.846H311.904C309.28 204.846 307.154 202.72 307.154 200.096V165.75C307.154 163.127 309.28 161 311.904 161H351C403.467 161 446 203.533 446 256C446 308.467 403.467 351 351 351H311.904C309.28 351 307.154 348.873 307.154 346.25V311.904C307.154 309.28 309.28 307.154 311.904 307.154H351C379.251 307.154 402.154 284.251 402.154 256C402.154 227.749 379.251 204.846 351 204.846Z" fill="black"/>
<path d="M277.923 165.75C277.923 163.127 275.796 161 273.173 161H238.827C236.204 161 234.077 163.127 234.077 165.75V229.327C234.077 231.95 231.95 234.077 229.327 234.077L161 234.077C148.892 234.077 139.077 243.892 139.077 256C139.077 268.108 148.892 277.923 161 277.923H229.327C231.95 277.923 234.077 280.05 234.077 282.673V346.25C234.077 348.873 236.204 351 238.827 351H273.173C275.796 351 277.923 348.873 277.923 346.25V282.673C277.923 280.05 280.05 277.923 282.673 277.923H351C363.108 277.923 372.923 268.108 372.923 256C372.923 243.892 363.108 234.077 351 234.077L282.673 234.077C280.05 234.077 277.923 231.95 277.923 229.327V165.75Z" fill="black"/>
</svg>
